<svg width="10" height="6" viewBox="0 0 10 6" fill="none" xmlns="http://www.w3.org/2000/svg">
<path d="M4.99996 0.533323C4.91222 0.532816 4.82525 0.549634 4.74402 0.58281C4.6628 0.615986 4.58892 0.664869 4.52663 0.726657L0.526628 4.72666C0.464469 4.78882 0.415161 4.86261 0.381521 4.94382C0.347881 5.02504 0.330566 5.11208 0.330566 5.19999C0.330566 5.37753 0.401092 5.54779 0.526628 5.67332C0.652163 5.79886 0.822426 5.86938 0.999961 5.86938C1.1775 5.86938 1.34776 5.79886 1.47329 5.67332L4.99996 2.14666L8.52663 5.67332C8.58879 5.73548 8.66258 5.78479 8.74379 5.81843C8.82501 5.85207 8.91205 5.86938 8.99996 5.86938C9.08787 5.86938 9.17491 5.85207 9.25613 5.81843C9.33734 5.78479 9.41113 5.73548 9.47329 5.67332C9.53545 5.61116 9.58476 5.53737 9.6184 5.45616C9.65204 5.37494 9.66935 5.2879 9.66935 5.19999C9.66935 5.11208 9.65204 5.02504 9.6184 4.94382C9.58476 4.86261 9.53545 4.78882 9.47329 4.72666L5.47329 0.726657C5.411 0.664869 5.33712 0.615986 5.2559 0.58281C5.17467 0.549634 5.0877 0.532816 4.99996 0.533323Z" fill="#A1A5B7"/>
</svg>
