<svg width="10" height="10" viewBox="0 0 10 10" fill="none" xmlns="http://www.w3.org/2000/svg">
<path d="M6.17499 5.00003L9.16666 2.03336C9.32579 1.87202 9.41431 1.65407 9.41275 1.42747C9.41118 1.20086 9.31967 0.984156 9.15833 0.825026C8.99699 0.665896 8.77904 0.577376 8.55243 0.578939C8.32583 0.580502 8.10912 0.67202 7.94999 0.83336V0.83336L4.99999 3.82503L2.04999 0.891693C1.89386 0.736484 1.68265 0.649366 1.46249 0.649366C1.24234 0.649366 1.03113 0.736484 0.874994 0.891693C0.796887 0.969162 0.734891 1.06133 0.692584 1.16288C0.650277 1.26443 0.628495 1.37335 0.628495 1.48336C0.628495 1.59337 0.650277 1.70229 0.692584 1.80384C0.734891 1.90539 0.796887 1.99756 0.874994 2.07503L3.82499 5.00003L0.833327 7.96669C0.674197 8.12803 0.585677 8.34598 0.58724 8.57259C0.588802 8.79919 0.68032 9.0159 0.84166 9.17503C1.003 9.33416 1.22095 9.42268 1.44755 9.42111C1.67416 9.41955 1.89086 9.32803 2.04999 9.16669L4.99999 6.17503L7.94999 9.10836C8.10613 9.26357 8.31734 9.35069 8.53749 9.35069C8.75765 9.35069 8.96886 9.26357 9.12499 9.10836C9.2031 9.03089 9.2651 8.93872 9.3074 8.83717C9.34971 8.73562 9.37149 8.6267 9.37149 8.51669C9.37149 8.40668 9.34971 8.29776 9.3074 8.19621C9.2651 8.09466 9.2031 8.0025 9.12499 7.92503L6.17499 5.00003Z" fill="#A1A5B7"/>
</svg>
