<svg width="18" height="18" viewBox="0 0 18 18" fill="none" xmlns="http://www.w3.org/2000/svg">
<path d="M13.45 12.7333V7.23333C13.4478 6.53782 13.1706 5.87141 12.6788 5.37961C12.187 4.8878 11.5206 4.61053 10.825 4.60833H3.32504V3.9C3.32502 2.8766 3.72984 1.89475 4.45115 1.16876C5.17245 0.442775 6.15167 0.0316041 7.17504 0.0250015H14.0417C15.0694 0.0250015 16.055 0.433259 16.7817 1.15996C17.5085 1.88667 17.9167 2.87229 17.9167 3.9V8.9C17.9146 9.91909 17.5111 10.8963 16.7936 11.62C16.0761 12.3438 15.1024 12.7557 14.0834 12.7667L13.45 12.7333ZM10.825 3.35833C11.8528 3.35833 12.8384 3.76659 13.5651 4.4933C14.2918 5.22 14.7 6.20562 14.7 7.23333V11.4C15.2563 11.256 15.7499 10.9334 16.1052 10.4818C16.4604 10.0302 16.6577 9.47452 16.6667 8.9V3.9C16.6645 3.20448 16.3872 2.53808 15.8954 2.04627C15.4036 1.55447 14.7372 1.2772 14.0417 1.275H7.17504C6.57165 1.27426 5.98655 1.48208 5.51881 1.86325C5.05107 2.24443 4.72944 2.77555 4.60837 3.36667L10.825 3.35833ZM7.39171 17.975C7.11945 17.9763 6.85101 17.911 6.60986 17.7846C6.36871 17.6582 6.1622 17.4746 6.00837 17.25L5.25837 16.1917C5.23239 16.1517 5.19645 16.1191 5.15408 16.0972C5.11171 16.0753 5.06437 16.0648 5.01671 16.0667H4.00004C3.48767 16.0722 2.9793 15.976 2.50434 15.7837C2.02939 15.5915 1.59728 15.3069 1.23303 14.9465C0.868775 14.5862 0.579613 14.1571 0.382275 13.6843C0.184938 13.2114 0.0833444 12.7041 0.083374 12.1917V7.23333C0.0833444 6.72094 0.184938 6.21362 0.382275 5.74075C0.579613 5.26788 0.868775 4.83884 1.23303 4.47846C1.59728 4.11808 2.02939 3.83352 2.50434 3.64126C2.9793 3.44899 3.48767 3.35283 4.00004 3.35833H10.8667C11.8944 3.35833 12.88 3.76659 13.6067 4.4933C14.3334 5.22 14.7417 6.20562 14.7417 7.23333V12.1917C14.7417 13.2194 14.3334 14.205 13.6067 14.9317C12.88 15.6584 11.8944 16.0667 10.8667 16.0667H9.76671C9.71917 16.0656 9.67212 16.0764 9.62989 16.0983C9.58765 16.1201 9.5516 16.1522 9.52504 16.1917L8.77504 17.25C8.62122 17.4746 8.4147 17.6582 8.17355 17.7846C7.9324 17.911 7.66396 17.9763 7.39171 17.975V17.975ZM4.00004 4.60833C3.65213 4.60393 3.3068 4.66851 2.984 4.79835C2.66119 4.9282 2.36732 5.12072 2.11937 5.36481C1.87141 5.60889 1.67428 5.89969 1.53937 6.22041C1.40446 6.54113 1.33445 6.8854 1.33337 7.23333V12.1917C1.33111 12.5413 1.39872 12.8879 1.53225 13.2111C1.66577 13.5342 1.86252 13.8275 2.11093 14.0735C2.35934 14.3196 2.65441 14.5136 2.97881 14.6441C3.30322 14.7745 3.65042 14.8389 4.00004 14.8333H5.01671C5.2654 14.8321 5.51066 14.8914 5.73133 15.0061C5.952 15.1208 6.14146 15.2874 6.28337 15.4917L7.02504 16.5C7.06637 16.559 7.12124 16.6071 7.18504 16.6405C7.24884 16.6738 7.31971 16.6914 7.39171 16.6917V16.6917C7.4637 16.6914 7.53457 16.6738 7.59837 16.6405C7.66218 16.6071 7.71705 16.559 7.75837 16.5L8.50004 15.4417C8.6474 15.2466 8.83925 15.0897 9.05959 14.9839C9.27993 14.878 9.52237 14.8264 9.76671 14.8333H10.825C11.5212 14.8333 12.1889 14.5568 12.6812 14.0645C13.1735 13.5722 13.45 12.9045 13.45 12.2083V7.23333C13.4478 6.53782 13.1706 5.87141 12.6788 5.37961C12.187 4.8878 11.5206 4.61053 10.825 4.60833H4.00004ZM4.48337 9C4.32845 9 4.177 9.04594 4.04818 9.13202C3.91936 9.21809 3.81896 9.34043 3.75967 9.48357C3.70038 9.6267 3.68487 9.7842 3.71509 9.93616C3.74532 10.0881 3.81992 10.2277 3.92947 10.3372C4.03902 10.4468 4.1786 10.5214 4.33055 10.5516C4.48251 10.5818 4.64001 10.5663 4.78314 10.507C4.92628 10.4478 5.04862 10.3474 5.13469 10.2185C5.22077 10.0897 5.26671 9.93826 5.26671 9.78333C5.26454 9.57625 5.18131 9.37827 5.03488 9.23183C4.88844 9.0854 4.69045 9.00217 4.48337 9ZM7.40004 9C7.24664 8.99705 7.09574 9.03922 6.96609 9.12127C6.83644 9.20332 6.73374 9.32164 6.67073 9.46154C6.60773 9.60144 6.5872 9.75676 6.61169 9.90823C6.63618 10.0597 6.70462 10.2006 6.8085 10.3136C6.91238 10.4265 7.04714 10.5064 7.19604 10.5434C7.34495 10.5804 7.50144 10.5729 7.6461 10.5217C7.79076 10.4706 7.91721 10.3781 8.00976 10.2557C8.10231 10.1333 8.15689 9.98645 8.16671 9.83334C8.17231 9.72799 8.1568 9.62259 8.12109 9.52333C8.08538 9.42407 8.03019 9.33294 7.95877 9.25531C7.88735 9.17767 7.80113 9.11509 7.70518 9.07125C7.60923 9.02741 7.50548 9.00318 7.40004 9V9ZM10.3084 9C10.1534 9 10.002 9.04594 9.87318 9.13202C9.74436 9.21809 9.64396 9.34043 9.58467 9.48357C9.52538 9.6267 9.50987 9.7842 9.54009 9.93616C9.57032 10.0881 9.64492 10.2277 9.75447 10.3372C9.86402 10.4468 10.0036 10.5214 10.1556 10.5516C10.3075 10.5818 10.465 10.5663 10.6081 10.507C10.7513 10.4478 10.8736 10.3474 10.9597 10.2185C11.0458 10.0897 11.0917 9.93826 11.0917 9.78333C11.0895 9.57625 11.0063 9.37827 10.8599 9.23183C10.7134 9.0854 10.5155 9.00217 10.3084 9V9Z" fill="#7E8299"/>
</svg>
